PathFileType	4	(X/Y/Z)	/Users/niels/Desktop/University/Third Semester/Perception and Action/Exam/Gymnastics Motion Tracking/Code for Gym Tracking/Analyzed Data/Webcam_Backflip/id13_1_baseline_Sports2D/id13_1_baseline_Sports2D_px_person00.trc
DataRate	CameraRate	NumFrames	NumMarkers	Units	OrigDataRate	OrigDataStartFrame	OrigNumFrames
29.702970297029704	29.702970297029704	10	22	m	29.702970297029704	63	101
Frame#	Time	Hip			RHip			RKnee			RAnkle			RBigToe			RSmallToe			RHeel			LHip			LKnee			LAnkle			LBigToe			LSmallToe			LHeel			Neck			Head			Nose			RShoulder			RElbow			RWrist			LShoulder			LElbow			LWrist		
		X1	Y1	Z1	X2	Y2	Z2	X3	Y3	Z3	X4	Y4	Z4	X5	Y5	Z5	X6	Y6	Z6	X7	Y7	Z7	X8	Y8	Z8	X9	Y9	Z9	X10	Y10	Z10	X11	Y11	Z11	X12	Y12	Z12	X13	Y13	Z13	X14	Y14	Z14	X15	Y15	Z15	X16	Y16	Z16	X17	Y17	Z17	X18	Y18	Z18	X19	Y19	Z19	X20	Y20	Z20	X21	Y21	Z21	X22	Y22	Z22
63	2.121	0.972461425784621	-0.6354579818616943	0.0	0.9272276975446984	-0.6397365809899624	0.0	0.9310012061641798	-0.8486280285536092	0.0	0.9260021899500886	-1.0331368152163827	0.0	0.9347374522870243	-1.0755711409039972	0.0	0.9052056295263099	-1.0713744211500744	0.0	0.9300722697127931	-1.0431103721494317	0.0	1.0195930049442823	-0.6374359410760417	0.0	1.0304341094812879	-0.8466327134741849	0.0	1.0403685393241915	-1.0323159206911143	0.0	1.0311266355689617	-1.076415440144926	0.0	1.059182417695682	-1.071772030300795	0.0	1.0372227596115016	-1.0444952065484077	0.0	0.9605398476027356	-0.346278273423735	0.0	0.9591795741867777	-0.22026441749749312	0.0	0.9622115296763609	-0.2962461325265251	0.0	0.8773068068580038	-0.3996269514477073	0.0	0.868971155645722	-0.5371125441787293	0.0	0.8467919607417523	-0.6644885558726955	0.0	1.0428978203099746	-0.38686450799279365	0.0	1.0740383965765095	-0.5183076921552056	0.0	1.1215354925885566	-0.6352444152368943	0.0
64	2.1546666666666665	0.9723408065029777	-0.6356083346255923	0.0	0.9271403085452696	-0.6400564061768791	0.0	0.9309099187122735	-0.8484616944213224	0.0	0.9260338696185233	-1.0331072390302307	0.0	0.9350554178206277	-1.075266108839589	0.0	0.9053901267162305	-1.0707131931143181	0.0	0.9303211126720631	-1.0422998419268996	0.0	1.019320268871863	-0.6377636475476061	0.0	1.0303031477495685	-0.8465053073379382	0.0	1.040340160934363	-1.0320789315917513	0.0	1.0311001727418752	-1.0761370069997984	0.0	1.0592772283365974	-1.0714744934375908	0.0	1.0369072240290598	-1.0435707451557985	0.0	0.960590857027363	-0.34652158918448894	0.0	0.9593437484695307	-0.22035080835111162	0.0	0.9625231168047925	-0.2963822392855253	0.0	0.8774439030631128	-0.39954645801779864	0.0	0.8709862136070736	-0.5364227059907001	0.0	0.8538903020888886	-0.6629127905535165	0.0	1.0430163574127578	-0.3871188899006765	0.0	1.0712816883383303	-0.5193462874239678	0.0	1.1155154701480898	-0.635129329302601	0.0
65	2.188333333333333	0.9722255508526826	-0.6356563858353083	0.0	0.9269275132351439	-0.6402096847383447	0.0	0.9308454788274685	-0.8481960423130309	0.0	0.9260981173533313	-1.0332409100634616	0.0	0.9353037597619835	-1.0752874349259227	0.0	0.9055024658836917	-1.0704374589927566	0.0	0.9305478259544068	-1.0418038074627003	0.0	1.0190173154036142	-0.6379097703470629	0.0	1.0301373864237666	-0.846304153345384	0.0	1.040176011987471	-1.0319440447225725	0.0	1.0310487941925246	-1.0759863147912265	0.0	1.059458359749735	-1.0713205610874514	0.0	1.036613256761197	-1.0429130218492153	0.0	0.9606745723080634	-0.34688202264481155	0.0	0.9596178153997788	-0.22051306602614015	0.0	0.9628124462490579	-0.29663028416490317	0.0	0.8776255034807349	-0.3994775071604113	0.0	0.8715073994881376	-0.5356625824160298	0.0	0.8577701685897832	-0.6614242059793962	0.0	1.0431296380806099	-0.38742627374783734	0.0	1.070311865536786	-0.5198061085152003	0.0	1.1127753907940245	-0.634332743241937	0.0
66	2.222	0.9720855729348661	-0.6357347802371262	0.0	0.9267081549346666	-0.6402608527205695	0.0	0.9308045066361778	-0.8478798170252466	0.0	0.9262081558945991	-1.033288456183611	0.0	0.9354857497108175	-1.0753909906297625	0.0	0.9055808078996922	-1.0703727496686997	0.0	0.9306965917426298	-1.0415693709584373	0.0	1.0187752287603624	-0.6379594397276495	0.0	1.0299922420716356	-0.8461683469065836	0.0	1.0399242441302674	-1.0318155801011595	0.0	1.0309932463951705	-1.0757961503535747	0.0	1.0596200597264012	-1.071155470472071	0.0	1.0364219693526031	-1.0424628231060238	0.0	0.960778897409184	-0.3473203064160469	0.0	0.9599702051413551	-0.220798123263223	0.0	0.9630422521686675	-0.29707250835296134	0.0	0.8777639524280842	-0.3994186819237467	0.0	0.8708674154058847	-0.53505040942644	0.0	0.8589651150692121	-0.6603842322789544	0.0	1.0432796695258864	-0.38776079683975134	0.0	1.0708292820067	-0.5196583417864643	0.0	1.1129192470706442	-0.6331453758300561	0.0
67	2.2556666666666665	0.9718809842309497	-0.6358924741157725	0.0	0.9265884679268294	-0.6402109896679989	0.0	0.9307623160135179	-0.847566471045339	0.0	0.9263795070141595	-1.0330943544446853	0.0	0.9356166831801818	-1.0753521879678558	0.0	0.9056523754124359	-1.0703710598775649	0.0	0.9307517242832948	-1.0414917410649924	0.0	1.0186590102648008	-0.6379337077290049	0.0	1.0298673222456474	-0.8461847159937842	0.0	1.0396929721239372	-1.0316331721380203	0.0	1.0308666234456305	-1.0755342252156848	0.0	1.0596836880297842	-1.070968067815717	0.0	1.036401461836025	-1.0421714846264811	0.0	0.9608858882206972	-0.3477558963219419	0.0	0.9602914844418495	-0.22119856544080654	0.0	0.96320528796134	-0.2976990576134524	0.0	0.877807816460403	-0.39936635406066323	0.0	0.8694711827132391	-0.5346404727332238	0.0	0.8580511476868127	-0.6598263512869444	0.0	1.0434175206032328	-0.38803708385756985	0.0	1.0724170501970824	-0.5189104612776859	0.0	1.1153298017352633	-0.6317401493850692	0.0
68	2.289333333333333	0.9716179775009619	-0.6360810971687673	0.0	0.9266107924954989	-0.6400192809338539	0.0	0.9307038207529007	-0.8473000742246148	0.0	0.9266300329498215	-1.0326663661306308	0.0	0.9357126237933294	-1.0750885436172695	0.0	0.9057349645640494	-1.0703794770854522	0.0	0.930734319397691	-1.04150466564352	0.0	1.0186776624857796	-0.6378091704550453	0.0	1.0297428846692855	-0.8463385847858498	0.0	1.0395706915812115	-1.031387481963064	0.0	1.030566462136111	-1.0752577622639703	0.0	1.0596168507201331	-1.0708384229503414	0.0	1.0365702377360966	-1.0420231679078078	0.0	0.9609808994671144	-0.3480852437436019	0.0	0.9604944716122905	-0.22164717557582958	0.0	0.9633107426348263	-0.29838634661365093	0.0	0.8777356140469584	-0.3993201753911056	0.0	0.8676826448319617	-0.5343650339377838	0.0	0.8555734624423916	-0.6595940158558775	0.0	1.0434701524606347	-0.3881279093094299	0.0	1.074604993014954	-0.517695131034029	0.0	1.1192715450021973	-0.630218330072805	0.0
69	2.323	0.9713619835941374	-0.6362152355855974	0.0	0.9267454017766394	-0.6397503441651998	0.0	0.930632410767885	-0.8471386641154327	0.0	0.9269479230931756	-1.0321432955243537	0.0	0.9357663226686609	-1.0746870845406205	0.0	0.9058210825666041	-1.0704073300509838	0.0	0.9306907757546442	-1.0416616735153943	0.0	1.0187848028077575	-0.6376593419222054	0.0	1.029610657539329	-0.846585555191566	0.0	1.0395656371361282	-1.0311380819771543	0.0	1.030094779952504	-1.0750158313925025	0.0	1.059434182028493	-1.0708246842436957	0.0	1.0368559404470252	-1.042098808022172	0.0	0.9610372108240328	-0.3482284708320211	0.0	0.9605687863093749	-0.22205772389367986	0.0	0.9633570423042891	-0.2989336609325636	0.0	0.8775463650419334	-0.39925807412933134	0.0	0.8657555905580436	-0.5341133366742474	0.0	0.8520020131195744	-0.6594877497131547	0.0	1.0434065541157427	-0.387943780688706	0.0	1.076945539115871	-0.5162628959637269	0.0	1.124000187695899	-0.628602201727224	0.0
70	2.3566666666666665	0.9711889674992623	-0.6362108603131786	0.0	0.9269026400559931	-0.639615602156243	0.0	0.9305679121402864	-0.84712781073741	0.0	0.9272620058427009	-1.0317088552089089	0.0	0.9357441491275472	-1.0743180953987157	0.0	0.9058780417859006	-1.0704750987115985	0.0	0.9306797154451512	-1.0420810789032904	0.0	1.0188904961445768	-0.6376834563212057	0.0	1.0294818541491568	-0.8469123887518394	0.0	1.0396117794219957	-1.0309783893737094	0.0	1.0295961737421901	-1.074819546476697	0.0	1.0591923933048912	-1.0709067026594883	0.0	1.0371332966809237	-1.0425218084918253	0.0	0.9610141725174238	-0.3482008417253439	0.0	0.9605584506036059	-0.2223792957399178	0.0	0.9633258759292402	-0.29918505018697605	0.0	0.8772617461909761	-0.39916590308367783	0.0	0.863836929047483	-0.5338060571393989	0.0	0.8477359452420661	-0.6593111593493692	0.0	1.043241500277244	-0.3875207832539143	0.0	1.0791085345316824	-0.5149114206740967	0.0	1.1288271462441262	-0.6268357016339323	0.0
71	2.390333333333333	0.9711348371908023	-0.6360358782862581	0.0	0.9269831161253431	-0.6398655623580608	0.0	0.9305217166455667	-0.8472772024497405	0.0	0.9274579878095096	-1.031557730063968	0.0	0.9356197585614004	-1.074178274719466	0.0	0.9058776635540291	-1.0706476911431975	0.0	0.9307387777691007	-1.0428480263488193	0.0	1.018910666153669	-0.6380789571976783	0.0	1.02936771270746	-0.8473230676496128	0.0	1.0396346438226924	-1.031012248373644	0.0	1.0292595123726822	-1.0747234658966305	0.0	1.0589738601299745	-1.0710555163982685	0.0	1.0373201933045304	-1.0433485972136431	0.0	0.9608894772884173	-0.34811993513323053	0.0	0.9605073475560442	-0.22259521426896342	0.0	0.9632141218221725	-0.2991356828641586	0.0	0.8769250895538918	-0.3990801688557412	0.0	0.8620080534582808	-0.5334435327536124	0.0	0.843109152671639	-0.658921497659328	0.0	1.0430028257519184	-0.38700503651143814	0.0	1.0809351494043085	-0.5138798127289007	0.0	1.1332123727962613	-0.6248622369015118	0.0
72	2.424	0.9712051750658584	-0.6357471656892816	0.0	0.9269495855888171	-0.6406468245876158	0.0	0.9304706247491549	-0.8476122527674663	0.0	0.9274493184973168	-1.0319003406449259	0.0	0.935393853008311	-1.0745022653507452	0.0	0.9058069671789677	-1.0710827954493731	0.0	0.9308467230635483	-1.0440034015663002	0.0	1.0188321857656195	-0.6389008611811356	0.0	1.0292490720749574	-0.8478062004539612	0.0	1.039622787283776	-1.0313944201663852	0.0	1.0292355063326404	-1.07492070008383	0.0	1.0588651286890787	-1.0713633362357897	0.0	1.0374348037343124	-1.0445848261306454	0.0	0.9606747211720109	-0.34810156153051625	0.0	0.9604159237767134	-0.22269039044664646	0.0	0.9630487868045264	-0.2988985406058704	0.0	0.876594256127438	-0.39907035740402774	0.0	0.8602857917437798	-0.5331332311083784	0.0	0.8383038702653546	-0.6583536728814227	0.0	1.0427037511454595	-0.38653347565443474	0.0	1.082416152619297	-0.5132380201738869	0.0	1.1369070731742472	-0.6227728009111118	0.0
